<svg xmlns="http://www.w3.org/2000/svg" xml:space="preserve" style="fill-rule:evenodd;clip-rule:evenodd;stroke-linejoin:round;stroke-miterlimit:2" viewBox="0 0 512 512"><path d="M0 0h512v512H0z" style="fill:none"/><path d="m201.022 295.397 11.254-75.157h-39.734l-9.954-35.922 37.975-26.434c-12.893-12.82-20.88-30.57-20.88-50.171 0-39.055 31.708-70.762 70.762-70.762s70.763 31.707 70.763 70.762c0 19.601-7.987 37.351-20.881 50.171l37.976 26.434-9.954 35.922h-39.691l11.601 75.661a57 57 0 0 0 3.42 3.974c29.863 31.594 80.933 57.995 82.232 110.796l.432 20.774s-22.072 22.073-135.465 22.073c-.045 0-.19-.008-.425-.023a9 9 0 0 1-.441.023c-113.392 0-135.465-22.073-135.465-22.073l.433-20.774c1.298-52.801 52.368-79.202 82.231-110.796a57 57 0 0 0 3.811-4.478" style="fill:#6c9d41" transform="translate(-55.54 -17.692)scale(1.11604)"/><path d="m189.339 290.225 8.634-57.664h-25.431a12.32 12.32 0 0 1-11.873-9.031l-9.954-35.922a12.32 12.32 0 0 1 4.834-13.402l26.917-18.736c-9.515-13.514-15.103-29.988-15.103-47.757 0-45.854 37.228-83.082 83.082-83.082 45.855 0 83.083 37.228 83.083 83.082 0 17.769-5.589 34.243-15.104 47.757l26.918 18.736a12.32 12.32 0 0 1 4.834 13.402l-9.954 35.922a12.32 12.32 0 0 1-11.873 9.031h-25.337l8.904 58.074q.353.392.717.777c14.895 15.759 35.087 30.215 51.71 47.323 18.791 19.34 33.152 41.861 33.884 71.633l.001.046.433 20.775a12.32 12.32 0 0 1-3.606 8.968s-23.188 25.681-144.177 25.681l-.434-.017-.432.017c-120.989 0-144.177-25.681-144.177-25.681a12.33 12.33 0 0 1-3.606-8.968l.433-20.775.001-.046c.732-29.772 15.094-52.293 33.885-71.633 16.622-17.108 36.814-31.564 51.71-47.323q.552-.585 1.081-1.187m11.683 5.172a57 57 0 0 1-3.811 4.478c-29.863 31.594-80.933 57.995-82.231 110.796l-.433 20.774s22.073 22.073 135.465 22.073q.101 0 .441-.023c.235.015.38.023.425.023 113.393 0 135.465-22.073 135.465-22.073l-.432-20.774c-1.299-52.801-52.369-79.202-82.232-110.796a57 57 0 0 1-3.42-3.974l-11.601-75.661h39.691l9.954-35.922-37.976-26.434c12.894-12.82 20.881-30.57 20.881-50.171 0-39.055-31.708-70.762-70.763-70.762-39.054 0-70.762 31.707-70.762 70.762 0 19.601 7.987 37.351 20.88 50.171l-37.975 26.434 9.954 35.922h39.734z" style="fill:#fff" transform="translate(-55.54 -17.692)scale(1.11604)"/><ellipse cx="333.301" cy="264.114" rx="77.524" ry="60.86" style="fill:#fff" transform="matrix(1.05296 0 0 1 -9.682 1.932)"/><path d="m275.298 214.592-16.66-16.659c-3.689-3.69-3.689-9.68 0-13.37s9.681-3.69 13.37 0l151.26 151.26c3.69 3.69 3.69 9.68 0 13.37s-9.68 3.69-13.369 0l-19.286-19.286c-14.754 8.035-31.672 12.601-49.66 12.601-44.277 0-82.068-27.668-97.073-66.624a25.06 25.06 0 0 1 0-18.011c6.565-17.046 17.493-31.93 31.418-43.28m101.235 101.235-16.37-16.37a37.64 37.64 0 0 1-19.21 5.236c-20.884 0-37.814-16.93-37.814-37.815 0-7.013 1.909-13.58 5.235-19.21l-19.623-19.623c-12.115 9.425-21.616 22.056-27.227 36.624a6.15 6.15 0 0 0 0 4.419c12.288 31.902 43.23 54.513 79.43 54.513 12.7 0 24.752-2.783 35.58-7.774m-30.682-30.682-23.164-23.164a19 19 0 0 0-.641 4.897c0 10.443 8.465 18.908 18.908 18.908 1.694 0 3.335-.223 4.897-.64m32.565-13.081-42.647-42.648a38 38 0 0 1 5.185-.353c20.884 0 37.815 16.93 37.815 37.815q-.002 2.641-.353 5.186m24.628 24.628a85.1 85.1 0 0 0 17.339-27.604 6.15 6.15 0 0 0 0-4.42c-12.287-31.902-43.23-54.512-79.43-54.512-7.485 0-14.745.967-21.662 2.782l-15.032-15.031c11.41-4.304 23.776-6.659 36.695-6.659 44.277 0 82.068 27.668 97.073 66.625a25.06 25.06 0 0 1 0 18.01 104.05 104.05 0 0 1-21.61 34.182z"/><path d="M237.303 121.271a48.7 48.7 0 0 1 16.123-10.037C299.001 94.042 348.396 84.62 400 84.62c176.852 0 327.798 110.517 387.732 266.118a137.1 137.1 0 0 1 0 98.524c-19.669 51.068-49.136 97.284-86.111 136.327l23.062 23.062 10.48 12.84 7.539 14.335 4.509 15.221 1.496 15.62-1.496 15.619-4.509 15.221-7.539 14.335-10.48 12.841-12.841 10.48-14.335 7.539-15.221 4.509-15.619 1.496-15.62-1.496-15.221-4.509-14.335-7.539-12.84-10.48-43.46-43.461C514.568 703.19 458.713 715.38 400 715.38c-176.855 0-327.802-110.518-387.734-266.119a137.1 137.1 0 0 1 0-98.522c19.67-51.069 49.138-97.286 86.113-136.328l-23.062-23.062-10.48-12.84-7.539-14.335-4.509-15.221-1.496-15.62 1.496-15.619 4.509-15.221 7.539-14.335 10.48-12.841 12.841-10.48 14.335-7.539 15.221-4.509 15.619-1.496 15.62 1.496 15.221 4.509 14.335 7.539 12.84 10.48zm348.223 348.223c18.623-20.369 33.943-43.814 45.096-69.494-17.256-39.736-44.477-74.129-78.501-100.037 18.917 28.707 29.926 63.086 29.926 100.037 0 8.45-.579 16.764-1.696 24.905a48.7 48.7 0 0 1-12.721 26.694zM168.502 215.643c-49.098 40.022-87.629 92.503-110.777 152.604a88.37 88.37 0 0 0 0 63.506C110.63 569.11 243.88 666.667 400 666.667c63.423 0 123.072-16.101 175.095-44.432l68.001 68.002c13.009 13.009 34.132 13.009 47.141 0s13.009-34.132 0-47.141L156.904 109.763c-13.009-13.009-34.132-13.009-47.141 0s-13.009 34.132 0 47.141zM525.45 572.59C487.274 590.188 444.778 600 400 600c-127.639 0-236.739-79.723-280.063-192.21a21.69 21.69 0 0 1 0-15.58c19.784-51.366 53.283-95.901 96.001-129.132l69.189 69.189c-11.73 19.85-18.461 43.005-18.461 67.733 0 73.637 59.695 133.333 133.334 133.333 24.726 0 47.881-6.73 67.732-18.46zM169.375 400c17.257 39.738 44.479 74.131 78.504 100.039-18.918-28.708-29.927-63.088-29.927-100.039 0-19.883 3.193-39.02 9.087-56.929l-12.567-12.568c-18.625 20.37-33.943 43.816-45.097 69.497m247.893 64.408A66.8 66.8 0 0 1 400 466.667c-36.82 0-66.668-29.847-66.668-66.667 0-5.972.786-11.761 2.259-17.269zm114.822-46.125c.82-5.976 1.243-12.08 1.243-18.283 0-73.638-59.696-133.333-133.333-133.333-6.203 0-12.307.423-18.283 1.243zm86.837 86.837 47.153 47.153c32.72-34.503 58.8-75.36 76.193-120.52a88.36 88.36 0 0 0 0-63.506C689.367 230.889 556.117 133.333 400 133.333c-45.55 0-89.153 8.305-129.382 23.479l52.999 52.999C348.007 203.409 373.607 200 400 200c127.637 0 236.737 79.724 280.06 192.21a21.69 21.69 0 0 1 0 15.58c-14.02 36.407-34.933 69.38-61.133 97.33" style="fill:#fff" transform="matrix(.28361 0 0 .28361 227.509 153.433)"/></svg>
